<svg width="20" height="21" viewBox="0 0 20 21" fill="none" xmlns="http://www.w3.org/2000/svg">
<path fill-rule="evenodd" clip-rule="evenodd" d="M4.18635 10.0059C4.18635 9.35592 4.29659 8.73283 4.49335 8.14839L1.04938 5.57324C0.378167 6.90766 0 8.41128 0 10.0059C0 11.5991 0.377702 13.1018 1.04798 14.4353L4.49009 11.8551C4.29519 11.2734 4.18635 10.6526 4.18635 10.0059Z" fill="#C4C4C4"/>
<path fill-rule="evenodd" clip-rule="evenodd" d="M10.2327 4.09332C11.6747 4.09332 12.9771 4.59361 14.0005 5.41227L16.9774 2.50147C15.1633 0.955107 12.8376 0 10.2327 0C6.18873 0 2.71313 2.26451 1.04883 5.57328L4.4928 8.14843C5.28634 5.78977 7.54836 4.09332 10.2327 4.09332Z" fill="#C4C4C4"/>
<path fill-rule="evenodd" clip-rule="evenodd" d="M10.2327 15.9184C7.54837 15.9184 5.28634 14.2219 4.4928 11.8633L1.04883 14.438C2.71313 17.7472 6.18873 20.0117 10.2327 20.0117C12.7287 20.0117 15.1117 19.1439 16.9002 17.518L13.6311 15.0433C12.7087 15.6123 11.5473 15.9184 10.2327 15.9184Z" fill="#C4C4C4"/>
<path fill-rule="evenodd" clip-rule="evenodd" d="M19.9987 10.0058C19.9987 9.41452 19.9057 8.77778 19.7662 8.18652H10.2306V12.0524H15.7194C15.4449 13.3705 14.6979 14.3838 13.629 15.0433L16.898 17.5179C18.7768 15.8106 19.9987 13.2672 19.9987 10.0058Z" fill="#C4C4C4"/>
</svg>
