<svg width="20" height="20" viewBox="0 0 20 20" fill="none" xmlns="http://www.w3.org/2000/svg">
<path fill-rule="evenodd" clip-rule="evenodd" d="M10.9667 0C12.8193 0.00305565 13.1984 0.0173262 14.1228 0.059505C15.1872 0.108054 15.9142 0.277121 16.5503 0.52435C17.2079 0.779876 17.7656 1.12182 18.3216 1.67777C18.8775 2.23376 19.2194 2.79145 19.475 3.44906C19.7222 4.08516 19.8913 4.81212 19.9398 5.87654C19.9885 6.94318 20 7.28373 20 9.99968C20 12.7156 19.9885 13.0561 19.9398 14.1228C19.8913 15.1872 19.7222 15.9142 19.475 16.5503C19.2194 17.2079 18.8775 17.7656 18.3216 18.3216C17.7656 18.8775 17.2079 19.2194 16.5503 19.475C15.9142 19.7222 15.1872 19.8913 14.1228 19.9398C13.0561 19.9885 12.7156 20 9.99968 20C7.28373 20 6.94318 19.9885 5.87654 19.9398C4.81212 19.8913 4.08516 19.7222 3.44906 19.475C2.79145 19.2194 2.23376 18.8775 1.67777 18.3216C1.12182 17.7656 0.779876 17.2079 0.52435 16.5503C0.277121 15.9142 0.108054 15.1872 0.059505 14.1228C0.0173262 13.1984 0.00305565 12.8193 0 10.9667V9.03264C0.00305565 7.18001 0.0173262 6.80096 0.059505 5.87654C0.108054 4.81212 0.277121 4.08516 0.52435 3.44906C0.779876 2.79145 1.12182 2.23376 1.67777 1.67777C2.23376 1.12182 2.79145 0.779876 3.44906 0.52435C4.08516 0.277121 4.81212 0.108054 5.87654 0.059505C6.80096 0.0173262 7.18001 0.00305565 9.03264 0H10.9667ZM9.99968 4.86436C12.8358 4.86436 15.135 7.16349 15.135 9.99968C15.135 12.8358 12.8358 15.135 9.99968 15.135C7.16349 15.135 4.86436 12.8358 4.86436 9.99968C4.86436 7.16349 7.16349 4.86436 9.99968 4.86436ZM9.99968 6.66622C8.15864 6.66622 6.66622 8.15864 6.66622 9.99968C6.66622 11.8407 8.15864 13.3331 9.99968 13.3331C11.8407 13.3331 13.3331 11.8407 13.3331 9.99968C13.3331 8.15864 11.8407 6.66622 9.99968 6.66622ZM15.3379 3.46141C16.0006 3.46141 16.5379 3.9987 16.5379 4.66147C16.5379 5.32424 16.0006 5.86149 15.3379 5.86149C14.6751 5.86149 14.1378 5.32424 14.1378 4.66147C14.1378 3.9987 14.6751 3.46141 15.3379 3.46141Z" fill="#C4C4C4"/>
</svg>
